static_grf.mot
version=1
nRows=17
nColumns 19
inDegrees=yes
endheader
time	1_ground_force_vx	1_ground_force_vy	1_ground_force_vz	1_ground_force_px	1_ground_force_py	1_ground_force_pz	1_ground_torque_x	1_ground_torque_y	1_ground_torque_z	2_ground_force_vx	2_ground_force_vy	2_ground_force_vz	2_ground_force_px	2_ground_force_py	2_ground_force_pz	2_ground_torque_x	2_ground_torque_y	2_ground_torque_z
            0.098500	            5.036133	          262.194378	          -19.203025	           -0.341624	            0.006208	           -0.406399	            0.003021	            0.157298	           -0.011520	           -3.456371	          298.411810	           24.624017	           -0.315605	            0.005355	           -0.700702	            0.008442	           -0.728848	           -0.060142
            0.099000	            5.127639	          262.555123	          -19.247562	           -0.341258	            0.006206	           -0.405988	            0.002170	            0.111105	           -0.008145	           -3.125181	          297.492899	           24.432880	           -0.315970	            0.005354	           -0.700733	            0.008438	           -0.803204	           -0.065967
            0.099500	            5.082009	          262.014151	          -19.203911	           -0.341622	            0.006207	           -0.406289	            0.002816	            0.145164	           -0.010640	           -3.219484	          297.676199	           24.574361	           -0.315993	            0.005354	           -0.700816	            0.008176	           -0.756003	           -0.062411
            0.100000	            5.128161	          262.193806	          -19.065685	           -0.341187	            0.006206	           -0.405879	            0.002470	            0.126297	           -0.009184	           -3.313142	          297.675526	           24.668257	           -0.315805	            0.005353	           -0.700374	            0.008303	           -0.745987	           -0.061820
            0.100500	            5.082237	          262.013758	          -19.112200	           -0.341417	            0.006208	           -0.406349	            0.002190	            0.112892	           -0.008235	           -3.263634	          296.939132	           24.665609	           -0.316001	            0.005351	           -0.699979	            0.008621	           -0.784344	           -0.065153
            0.101000	            5.173336	          262.735625	          -19.292759	           -0.341157	            0.006205	           -0.405744	            0.003448	            0.175126	           -0.012860	           -3.314410	          298.043305	           24.810355	           -0.316080	            0.005353	           -0.700475	            0.008292	           -0.745609	           -0.062068
            0.101500	            5.173138	          263.817219	          -19.288121	           -0.340944	            0.006203	           -0.405343	            0.002401	            0.122441	           -0.008952	           -3.268266	          298.228011	           24.717136	           -0.315830	            0.005354	           -0.700620	            0.008609	           -0.785613	           -0.065112
            0.102000	            4.990176	          262.194565	          -19.248767	           -0.341347	            0.006208	           -0.406480	            0.002856	            0.150065	           -0.011017	           -3.499254	          297.306903	           24.573166	           -0.316167	            0.005352	           -0.700397	            0.008606	           -0.731184	           -0.060434
            0.102500	            5.127753	          262.554927	          -19.201706	           -0.341541	            0.006205	           -0.405693	            0.002337	            0.119638	           -0.008750	           -3.407589	          297.859998	           24.481241	           -0.315946	            0.005354	           -0.700833	            0.008478	           -0.741107	           -0.060912
            0.103000	            5.174052	          262.554149	          -19.018397	           -0.341108	            0.006205	           -0.405808	            0.002125	            0.107840	           -0.007812	           -3.361986	          298.227840	           24.670248	           -0.315902	            0.005355	           -0.700935	            0.008486	           -0.752762	           -0.062271
            0.103500	            4.944543	          262.915029	          -19.107994	           -0.341298	            0.006206	           -0.405976	            0.001129	            0.060035	           -0.004363	           -3.032084	          297.676876	           24.574281	           -0.316050	            0.005353	           -0.700564	            0.007962	           -0.781720	           -0.064534
            0.104000	            5.219083	          262.014964	          -19.387676	           -0.341374	            0.006209	           -0.406603	            0.003634	            0.182418	           -0.013498	           -3.220710	          298.043644	           24.810315	           -0.316012	            0.005353	           -0.700664	            0.008281	           -0.766308	           -0.063790
            0.104500	            5.081503	          262.916039	          -19.337614	           -0.341681	            0.006205	           -0.405792	            0.002710	            0.140202	           -0.010312	           -3.033269	          298.043985	           24.904092	           -0.316060	            0.005354	           -0.700980	            0.008343	           -0.819744	           -0.068497
            0.105000	            5.219505	          262.194413	          -19.203480	           -0.341528	            0.006207	           -0.406257	            0.002711	            0.136185	           -0.009974	           -3.316589	          298.597295	           24.389974	           -0.316241	            0.005353	           -0.700721	            0.008461	           -0.761755	           -0.062222
            0.105500	            5.036196	          263.095343	          -19.107448	           -0.341331	            0.006204	           -0.405439	            0.002437	            0.127321	           -0.009247	           -3.084874	          299.333699	           24.674071	           -0.315967	            0.005355	           -0.701175	            0.007968	           -0.773160	           -0.063732
            0.106000	            5.127915	          262.915065	          -19.108449	           -0.340960	            0.006205	           -0.405614	            0.002624	            0.134520	           -0.009777	           -3.034763	          298.413667	           24.529981	           -0.315924	            0.005354	           -0.700705	            0.007306	           -0.718412	           -0.059054
            0.106500	            4.990287	          263.455866	          -19.105788	           -0.341202	            0.006204	           -0.405379	            0.001700	            0.089747	           -0.006508	           -3.173360	          297.861011	           24.434214	           -0.316463	            0.005351	           -0.700458	            0.007500	           -0.703954	           -0.057747
